<svg width="34" height="34" viewBox="0 0 34 34" fill="none" xmlns="http://www.w3.org/2000/svg">
<path d="M6.78642 5.56824H26.6243C27.778 5.56824 28.8846 6.02696 29.7005 6.84265C30.5163 7.65846 30.9748 8.7651 30.9749 9.91882V23.4921C30.9749 24.6459 30.5163 25.7524 29.7005 26.5682C28.8846 27.3841 27.7781 27.8427 26.6243 27.8427H6.78642C5.6327 27.8426 4.52606 27.384 3.71025 26.5682C2.89456 25.7524 2.43584 24.6457 2.43584 23.4921V9.91882C2.4359 8.7651 2.89444 7.65846 3.71025 6.84265C4.52606 6.02684 5.6327 5.5683 6.78642 5.56824ZM3.82841 23.4921C3.82841 24.2765 4.14002 25.0291 4.69463 25.5839C5.24936 26.1386 6.00192 26.451 6.78642 26.451H26.6243C27.4089 26.451 28.1613 26.1386 28.7161 25.5839C29.2709 25.0291 29.5833 24.2766 29.5833 23.4921V13.2255H3.82841V23.4921ZM21.9261 20.1864H25.0589C25.2433 20.1865 25.4206 20.2591 25.5511 20.3895C25.6815 20.52 25.7541 20.6973 25.7542 20.8817C25.7542 21.0661 25.6813 21.2434 25.5511 21.3739C25.4206 21.5043 25.2433 21.5779 25.0589 21.578H21.9261C21.7415 21.578 21.5644 21.5044 21.4339 21.3739C21.3035 21.2434 21.2298 21.0662 21.2298 20.8817C21.2299 20.6973 21.3034 20.52 21.4339 20.3895C21.5644 20.2591 21.7416 20.1864 21.9261 20.1864ZM6.78642 6.96082C6.00192 6.96088 5.24936 7.27229 4.69463 7.82703C4.13989 8.38176 3.82848 9.13432 3.82841 9.91882V11.8329H29.5833V9.91882C29.5832 9.13432 29.2708 8.38176 28.7161 7.82703C28.1613 7.27241 27.4088 6.96082 26.6243 6.96082H6.78642Z" fill="#4CAF4F" stroke="#4CAF4F" stroke-width="0.696069"/>
</svg>
