<svg width="34" height="34" viewBox="0 0 34 34" fill="none" xmlns="http://www.w3.org/2000/svg">
<g clip-path="url(#clip0_211_2332)">
<path d="M11.4856 6.08032C13.1273 6.08042 14.7294 6.58543 16.0745 7.52661C17.4197 8.46792 18.4426 9.80053 19.0052 11.343C19.5676 12.8854 19.6424 14.5634 19.219 16.1497C18.7956 17.736 17.8944 19.1542 16.638 20.2112L16.2151 20.5667L16.719 20.7942C18.7885 21.7307 20.5692 23.2049 21.8763 25.0627L21.8811 25.0696L21.887 25.0764C21.9885 25.2065 22.0627 25.3563 22.1048 25.5159C22.1468 25.6754 22.1553 25.8419 22.1311 26.0051C22.1069 26.1683 22.0497 26.3247 21.9632 26.4651C21.8766 26.6055 21.7631 26.7275 21.6282 26.8225C21.4934 26.9174 21.3403 26.9836 21.179 27.0178C21.0176 27.052 20.8506 27.053 20.6888 27.0208C20.5269 26.9885 20.3727 26.9237 20.2366 26.8303H20.2376C20.1015 26.7369 19.985 26.6172 19.8968 26.4778L19.8929 26.4709L19.888 26.4641L19.7063 26.2141C18.7823 24.9787 17.5912 23.9659 16.22 23.2532C14.7576 22.4931 13.1337 22.096 11.4856 22.0959C9.83737 22.0959 8.2128 22.4931 6.75027 23.2532C5.28771 24.0134 4.02946 25.1151 3.08231 26.4641L3.08133 26.4651C2.97001 26.6249 2.82144 26.7551 2.64871 26.845C2.4759 26.9349 2.28395 26.9822 2.08914 26.9817H2.08719C1.8373 26.9825 1.59323 26.9043 1.38992 26.759L1.38797 26.7581L1.29324 26.6838C1.08176 26.5007 0.939178 26.249 0.8909 25.9709C0.842649 25.6929 0.892163 25.408 1.02957 25.1643L1.09402 25.0627C2.40109 23.2049 4.18174 21.7307 6.25125 20.7942L6.75516 20.5667L6.33231 20.2112C5.07588 19.1542 4.17471 17.736 3.75125 16.1497C3.32788 14.5634 3.40263 12.8854 3.96512 11.343C4.52765 9.80053 5.55055 8.46792 6.89578 7.52661C8.24101 6.58534 9.84379 6.08032 11.4856 6.08032ZM22.1214 6.09009H22.1233C23.7661 6.08539 25.3706 6.58787 26.718 7.52759C28.0654 8.46736 29.0904 9.79984 29.6536 11.343C30.2166 12.8861 30.2908 14.5651 29.8655 16.1516C29.44 17.7384 28.5354 19.1557 27.2757 20.2102L26.8509 20.5657L27.3557 20.7942C29.4253 21.7307 31.2059 23.2049 32.513 25.0627L32.5149 25.0647C32.6077 25.1945 32.6737 25.3418 32.7093 25.4973C32.7448 25.653 32.7493 25.8146 32.722 25.9719C32.6946 26.1293 32.636 26.2797 32.5501 26.4143C32.4641 26.5489 32.3522 26.6651 32.221 26.7561L32.2171 26.759C32.0138 26.9043 31.7697 26.9815 31.5198 26.9807C31.3247 26.9794 31.1323 26.9321 30.9593 26.842C30.786 26.7518 30.6367 26.6215 30.5237 26.4622C29.5747 25.1161 28.3165 24.0171 26.8548 23.2581C25.4841 22.5463 23.972 22.1526 22.4309 22.1047L22.1223 22.0999L22.0013 22.094C21.7226 22.0663 21.4608 21.9431 21.261 21.7434C21.0326 21.515 20.9036 21.2051 20.9036 20.8821C20.9036 20.559 21.0326 20.2492 21.261 20.0208C21.4894 19.7924 21.7993 19.6643 22.1223 19.6643C23.5991 19.6642 25.0156 19.0767 26.0598 18.0325C27.1039 16.9882 27.6907 15.5717 27.6907 14.095C27.6906 12.6182 27.1041 11.2017 26.0598 10.1575C25.0807 9.17835 23.7742 8.60165 22.3977 8.53345L22.1223 8.52661C21.6132 8.52568 21.1061 8.59593 20.6165 8.7356L20.4954 8.76587C20.3769 8.78872 20.2555 8.79342 20.135 8.78052C19.9744 8.76331 19.8186 8.71489 19.677 8.63696C19.5357 8.55911 19.4112 8.45378 19.3108 8.32739C19.2104 8.20085 19.1358 8.05518 19.0921 7.89966C19.0483 7.74415 19.0362 7.58149 19.0559 7.42114C19.0756 7.26086 19.1272 7.10631 19.2073 6.96606C19.2874 6.82577 19.3946 6.70222 19.5227 6.60376C19.6508 6.50541 19.7973 6.43315 19.9534 6.39185L19.9593 6.39087C20.6624 6.19068 21.3903 6.08887 22.1214 6.09009ZM12.5716 8.63403C11.4914 8.41917 10.3713 8.52897 9.35379 8.95044C8.33641 9.37191 7.4666 10.0856 6.85477 11.0012C6.24295 11.9169 5.91636 12.9937 5.91629 14.095C5.91629 15.5717 6.5031 16.9882 7.54715 18.0325C8.59146 19.0768 10.0088 19.6643 11.4856 19.6643C12.5866 19.6642 13.6629 19.3374 14.5784 18.7258C15.4941 18.1139 16.2087 17.2434 16.6302 16.2258C17.0514 15.2085 17.1614 14.089 16.9466 13.009C16.7317 11.9289 16.2019 10.9362 15.4231 10.1575C14.6444 9.37872 13.6517 8.84891 12.5716 8.63403Z" fill="#4CAF4F" stroke="#4CAF4F" stroke-width="0.696069"/>
</g>
<defs>
<clipPath id="clip0_211_2332">
<rect width="33.4113" height="33.4113" fill="white"/>
</clipPath>
</defs>
</svg>
