<svg width="24" height="27" viewBox="0 0 24 27" fill="none" xmlns="http://www.w3.org/2000/svg">
<path d="M22.9703 25.7545V22.9703C22.9703 21.4934 22.3836 20.077 21.3393 19.0327C20.295 17.9884 18.8786 17.4017 17.4017 17.4017H16.0096C15.6404 17.4017 15.2863 17.255 15.0252 16.994C14.7641 16.7329 14.6175 16.3788 14.6175 16.0096V9.04888C14.6175 8.31044 14.3241 7.60225 13.802 7.0801C13.2798 6.55794 12.5716 6.2646 11.8332 6.2646C11.0948 6.2646 10.3866 6.55794 9.86441 7.0801C9.34225 7.60225 9.04891 8.31044 9.04891 9.04888V21.5781L5.70778 17.1233C5.44843 16.7775 5.11213 16.4968 4.72552 16.3035C4.33891 16.1102 3.9126 16.0096 3.48035 16.0096H2.87616C1.67196 16.0096 0.696075 16.9855 0.696075 18.1897C0.696075 18.585 0.80327 18.9734 1.00652 19.3117L4.87249 25.7545M11.8332 2.08818V0.696045V2.08818ZM20.186 10.441H21.5782H20.186ZM2.08821 10.441H3.48035H2.08821ZM5.35 3.95783L4.36575 2.97358L5.35 3.95783ZM18.3164 3.95783L19.3006 2.97358L18.3164 3.95783Z" fill="#4CAF4F"/>
<path d="M22.9703 25.7545V22.9703C22.9703 21.4934 22.3836 20.077 21.3393 19.0327C20.295 17.9884 18.8786 17.4017 17.4017 17.4017H16.0096C15.6404 17.4017 15.2863 17.255 15.0252 16.994C14.7641 16.7329 14.6175 16.3788 14.6175 16.0096V9.04888C14.6175 8.31044 14.3241 7.60225 13.802 7.0801C13.2798 6.55794 12.5716 6.2646 11.8332 6.2646V6.2646C11.0948 6.2646 10.3866 6.55794 9.86441 7.0801C9.34225 7.60225 9.04891 8.31044 9.04891 9.04888V21.5781L5.70778 17.1233C5.44843 16.7775 5.11213 16.4968 4.72552 16.3035C4.33891 16.1102 3.9126 16.0096 3.48035 16.0096H2.87617C1.67196 16.0096 0.696075 16.9855 0.696075 18.1897C0.696075 18.585 0.80327 18.9734 1.00652 19.3117L4.87249 25.7545M11.8332 2.08818V0.696045M20.186 10.441H21.5782M2.08821 10.441H3.48035M5.35 3.95783L4.36575 2.97358M18.3164 3.95783L19.3006 2.97358" stroke="#4CAF4F" stroke-width="1.39214" stroke-linecap="round" stroke-linejoin="round"/>
</svg>
