<svg width="25" height="22" viewBox="0 0 25 22" fill="none" xmlns="http://www.w3.org/2000/svg">
<path d="M0.000330352 20.6365C0.000330352 20.8537 0.176609 21.0302 0.394079 21.0302H24.3721C24.5893 21.0302 24.7659 20.8539 24.7659 20.6365C24.7659 20.4193 24.5896 20.2427 24.3721 20.2427H23.6442V8.93765C23.6442 8.72046 23.468 8.5439 23.2505 8.5439L16.8218 8.54417V0.39381C16.8218 0.255974 16.7498 0.12857 16.6323 0.0571744C16.5151 -0.0144884 16.3685 -0.0188814 16.2465 0.0445438L8.93757 3.84994C8.80715 3.91777 8.72588 4.05231 8.72588 4.19921V11.3184H1.65238C1.4352 11.3184 1.25864 11.4947 1.25864 11.7121V20.2428H0.393201C0.176012 20.2425 0 20.4188 0 20.6363L0.000330352 20.6365ZM16.8219 14.5076H22.8571V20.243L16.8219 20.2428V14.5076ZM16.8219 11.7714H22.8571V13.7204L16.8219 13.7202V11.7714ZM16.8219 9.33125H22.8571V10.9845H16.8219V9.33125ZM9.51296 4.4383L16.0342 1.04284V20.2424H9.51296V4.4383ZM3.99257 17.0979C3.99257 16.2808 4.64002 15.6157 5.43602 15.6157C6.23201 15.6157 6.87975 16.2805 6.87975 17.0979V20.2429H3.99257V17.0979ZM2.04611 12.1058H8.72576V20.2428H7.66723V17.0978C7.66723 15.8465 6.66669 14.8284 5.43602 14.8284C4.2059 14.8284 3.20537 15.8462 3.20537 17.0978V20.2428H2.04611V12.1058Z" fill="#103E13"/>
</svg>
