<svg width="34" height="19" viewBox="0 0 34 19" fill="none" xmlns="http://www.w3.org/2000/svg">
<path d="M16.6987 0C14.2129 0 12.1892 2.04219 12.1892 4.53861C12.1892 6.11788 13.0001 7.5123 14.2247 8.3251C12.7457 8.81964 11.4659 9.74394 10.5272 10.9531C10.0082 10.5539 9.42835 10.2329 8.80322 10.0029C9.75117 9.29911 10.3706 8.16862 10.3706 6.89803C10.3706 4.78077 8.65826 3.04752 6.55382 3.04752C4.44938 3.04752 2.737 4.78077 2.737 6.89803C2.737 8.16934 3.35699 9.30036 4.30574 10.0041C1.79391 10.931 0 13.3578 0 16.2137V18.2199C0.000257091 18.3729 0.0614328 18.5194 0.169903 18.6271C0.278372 18.735 0.425145 18.7952 0.578083 18.7947H9.37986C9.40119 18.797 9.42253 18.7983 9.44386 18.798H23.954C23.9754 18.7983 23.9969 18.797 24.018 18.7947H32.8205C33.1369 18.7934 33.3931 18.5366 33.3939 18.2199V16.2137C33.3939 13.3578 31.6031 10.931 29.0926 10.0039C30.0413 9.30036 30.6613 8.16908 30.6613 6.89777C30.6613 4.7805 28.9489 3.04726 26.8445 3.04726C24.7401 3.04726 23.0277 4.7805 23.0277 6.89777C23.0277 8.16835 23.6474 9.29904 24.5954 10.0026C23.969 10.2332 23.3888 10.5552 22.8691 10.9554C21.9309 9.74551 20.6529 8.81993 19.1739 8.3251C20.3981 7.5123 21.2094 6.11788 21.2094 4.53861C21.2094 2.04219 19.1847 0 16.6988 0H16.6987ZM16.6987 1.15155C18.5579 1.15155 20.0567 2.6604 20.0567 4.53861C20.0567 6.40214 18.5812 7.89633 16.7426 7.92028C16.728 7.92028 16.7136 7.91822 16.6987 7.91822C16.6838 7.91822 16.6696 7.92028 16.6547 7.92028C14.8161 7.89663 13.3417 6.40221 13.3417 4.53861C13.3417 2.66014 14.8392 1.15155 16.6984 1.15155H16.6987ZM6.55389 4.199C8.02905 4.199 9.21916 5.39628 9.21916 6.89797C9.21916 8.38958 8.04445 9.58173 6.58317 9.59792C6.5734 9.59792 6.56389 9.59689 6.55387 9.59689C6.5441 9.59689 6.53459 9.59792 6.52456 9.59792C5.06328 9.58173 3.88857 8.38932 3.88857 6.89797C3.88857 5.39635 5.07868 4.199 6.55384 4.199H6.55389ZM26.8442 4.199C28.3193 4.199 29.5094 5.39628 29.5094 6.89797C29.5094 8.38958 28.3347 9.58173 26.8734 9.59792C26.8637 9.59792 26.8542 9.59689 26.8441 9.59689C26.8344 9.59689 26.8249 9.59792 26.8148 9.59792C25.3536 9.58173 24.1788 8.38932 24.1788 6.89797C24.1788 5.39635 25.3689 4.199 26.8441 4.199H26.8442ZM16.6546 9.07176C16.6693 9.07202 16.6837 9.07382 16.6986 9.07382C16.7132 9.07382 16.7276 9.07176 16.7425 9.07176C20.4298 9.09541 23.3807 12.0717 23.3807 15.7975L23.3804 17.6461H10.0172V15.7975C10.0172 12.0714 12.9673 9.09545 16.6541 9.07176H16.6546ZM6.5098 10.7508C6.52445 10.751 6.53884 10.7528 6.55375 10.7528C6.56866 10.7528 6.5828 10.7508 6.59771 10.7508C7.84487 10.7608 8.98306 11.1908 9.88936 11.9103C9.24084 13.0578 8.8658 14.3822 8.8658 15.7978V17.642H1.15108V16.2137C1.15108 13.1857 3.53183 10.7744 6.50966 10.7505L6.5098 10.7508ZM26.8001 10.7508C26.815 10.751 26.8291 10.7528 26.844 10.7528C26.8589 10.7528 26.8731 10.7508 26.888 10.7508C29.8658 10.7744 32.2466 13.186 32.2466 16.2139V17.642H24.5279L24.5276 15.7978C24.5276 14.383 24.1536 13.0595 23.5064 11.9123C24.4129 11.1919 25.5519 10.7608 26.8001 10.7508H26.8001Z" fill="#103E13"/>
</svg>
