<svg width="23" height="21" viewBox="0 0 23 21" fill="none" xmlns="http://www.w3.org/2000/svg">
<path d="M14.1605 10.1936C13.9929 10.1936 13.8373 10.1476 13.699 10.0734V10.0754C13.699 10.3391 13.5966 10.5867 13.4106 10.7722C13.2246 10.9582 12.9772 11.0607 12.7138 11.0607C12.5437 11.0607 12.3861 11.0135 12.2464 10.9374C12.2323 11.1786 12.1358 11.4041 11.9638 11.5763C11.7779 11.7623 11.5304 11.8647 11.2668 11.8647C10.7432 11.8647 10.318 11.4531 10.2873 10.9372C10.1253 11.0248 9.9421 11.0707 9.75317 11.0585C9.23805 11.0248 8.83464 10.5797 8.83464 10.0451V5.61343L8.33002 6.48766C8.13782 6.82204 7.77804 7.02965 7.39067 7.02965C7.20191 7.02965 7.01546 6.98013 6.85032 6.8855C6.64467 6.76628 6.49757 6.5749 6.4364 6.34595C6.3749 6.11685 6.40672 5.87726 6.52561 5.67193C6.52578 5.67193 8.17668 2.81303 8.2774 2.63742C8.28937 2.61102 8.32348 2.53444 8.35251 2.46916C8.38022 2.40685 8.404 2.34289 8.4268 2.2786C8.92466 0.873045 10.1574 -5.72205e-05 11.6442 -5.72205e-05C13.5748 -5.72205e-05 15.1456 1.70316 15.1456 3.79672L15.1457 9.20821C15.1457 9.47158 15.0434 9.71905 14.8576 9.9052C14.6716 10.0912 14.4242 10.1937 14.1605 10.1937L14.1605 10.1936ZM11.6442 0.523486C10.3667 0.523486 9.34845 1.24507 8.92027 2.4537C8.89288 2.53044 8.86435 2.60719 8.83106 2.68197C8.73447 2.89861 8.73447 2.89861 8.70724 2.92976L8.70364 2.92665C8.56884 3.181 8.16837 3.87452 6.97893 5.93395C6.93006 6.01841 6.9171 6.11648 6.94203 6.21028C6.96728 6.30408 7.0278 6.38312 7.1116 6.4315C7.37169 6.5809 7.7279 6.48447 7.87614 6.22618L8.86977 4.50588C8.92914 4.40339 9.04917 4.35304 9.1643 4.3842C9.27877 4.41487 9.3583 4.51868 9.3583 4.63708V10.0452C9.3583 10.3004 9.55083 10.5206 9.78748 10.5362C9.92393 10.5434 10.0512 10.4977 10.1468 10.4022C10.2337 10.3153 10.2816 10.1995 10.2816 10.0757V6.53871C10.2816 6.39407 10.3988 6.27681 10.5435 6.27681C10.6881 6.27681 10.8054 6.39391 10.8054 6.53871L10.8052 10.8797C10.8052 11.1342 11.0123 11.3413 11.2669 11.3413C11.3905 11.3413 11.5066 11.2934 11.5937 11.2065C11.6806 11.1194 11.7285 11.0033 11.7285 10.8797V6.53871C11.7285 6.39407 11.8456 6.27681 11.9904 6.27681C12.135 6.27681 12.2523 6.3939 12.2523 6.53871L12.2521 10.035V10.0757C12.2521 10.33 12.4592 10.5372 12.7139 10.5372C12.8374 10.5372 12.9532 10.4891 13.0408 10.4019C13.1277 10.3151 13.1756 10.1993 13.1756 10.0755V6.53852C13.1756 6.39388 13.2927 6.27663 13.4375 6.27663C13.5821 6.27663 13.6994 6.39372 13.6994 6.53852L13.699 9.20833C13.699 9.46301 13.9062 9.67014 14.1605 9.67014C14.2843 9.67014 14.4001 9.62209 14.487 9.53534C14.5743 9.44809 14.622 9.33198 14.622 9.20833L14.6221 3.79684C14.6221 1.99212 13.2863 0.52354 11.6442 0.52354L11.6442 0.523486Z" fill="#103E13"/>
<path d="M3.87084 13.9548L7.67118 11.675C8.12937 11.3998 8.71893 11.5167 9.0128 11.9413C9.12005 12.0959 9.17483 12.2762 9.18335 12.4597C9.32504 12.3857 9.4792 12.3455 9.63613 12.3455C9.71649 12.3455 9.79717 12.3556 9.87687 12.3754C10.1322 12.4392 10.3474 12.5988 10.4827 12.8244C10.6181 13.0504 10.6577 13.3152 10.5939 13.5702C10.535 13.8062 10.3915 14.0048 10.1919 14.1411C10.3315 14.2234 10.4518 14.3358 10.5374 14.4788C10.6729 14.7048 10.7124 14.9695 10.6488 15.2248C10.585 15.4798 10.4254 15.695 10.1995 15.8306L10.1982 15.8314C10.3352 15.9136 10.4535 16.0248 10.5381 16.1656C10.6737 16.3916 10.7133 16.6565 10.6495 16.9118C10.5855 17.167 10.4259 17.3821 10.2003 17.5176L5.56001 20.3014C4.69396 20.8207 3.69278 21 2.7413 20.8057C1.78129 20.6095 0.986234 20.0577 0.502811 19.2518C-0.262228 17.9768 -0.147576 16.4703 0.801442 15.3206C0.844902 15.2681 0.887702 15.2146 0.926569 15.1592C0.967731 15.1007 1.01578 15.0318 1.03218 15.0082C1.13041 14.8327 2.73329 11.9448 2.73313 11.9451C2.89499 11.653 3.19837 11.4877 3.51126 11.4879C3.65722 11.4879 3.8053 11.5238 3.94192 11.5996C4.10689 11.6917 4.24547 11.826 4.34239 11.9879C4.54164 12.32 4.54869 12.7356 4.36108 13.0719L3.87084 13.9548ZM3.89363 12.2571C3.8428 12.1723 3.77293 12.1048 3.68749 12.0569C3.51087 11.9592 3.2885 12.0228 3.19126 12.1988C2.04431 14.2651 1.65333 14.9692 1.50245 15.2198L1.50589 15.2206C1.49327 15.2626 1.49327 15.2626 1.35519 15.4599C1.30829 15.5267 1.25729 15.5908 1.2053 15.6539C0.389251 16.6426 0.294498 17.8869 0.951601 18.9825C1.35863 19.6611 2.03134 20.1263 2.84587 20.2926C3.66927 20.46 4.53712 20.3042 5.29036 19.8523L9.93106 17.0684C10.037 17.0049 10.1118 16.9041 10.1416 16.7845C10.1715 16.6651 10.1529 16.541 10.0893 16.435C9.95845 16.2169 9.67425 16.1453 9.45614 16.2766L7.16682 17.6501C7.04284 17.7245 6.8818 17.6845 6.80751 17.5604C6.73306 17.4364 6.77323 17.2755 6.89721 17.2011L9.1867 15.8276L9.93025 15.3815C10.0362 15.3179 10.1111 15.2171 10.141 15.0978C10.1708 14.9783 10.1523 14.854 10.0887 14.7482C9.95763 14.5299 9.67344 14.4589 9.45549 14.5898L6.42245 16.4093C6.29815 16.4839 6.1376 16.4436 6.06315 16.3196C5.98869 16.1956 6.02903 16.0347 6.15285 15.9603L9.87531 13.7272C9.98125 13.6636 10.056 13.5629 10.0859 13.4434C10.1157 13.324 10.0972 13.1998 10.0337 13.0939C9.97027 12.9881 9.86941 12.9133 9.74986 12.8835C9.62965 12.8536 9.506 12.8722 9.40039 12.9355L8.7113 13.3489C8.71113 13.3489 8.71113 13.3491 8.71097 13.3491H8.71081L5.67794 15.1686C5.55363 15.2433 5.39292 15.203 5.31863 15.0789C5.24418 14.9549 5.28452 14.794 5.40833 14.7196L8.44137 12.9C8.54731 12.8364 8.62225 12.7356 8.6521 12.6163C8.6849 12.4855 8.65997 12.3517 8.58224 12.2395C8.44744 12.0445 8.15914 11.9927 7.94054 12.124L3.3032 14.906C3.20169 14.9667 3.07165 14.9519 2.98653 14.8698C2.90126 14.7875 2.88207 14.6581 2.93946 14.5546L3.90375 12.8172C4.00051 12.6436 3.99673 12.4291 3.89358 12.2572L3.89363 12.2571Z" fill="#103E13"/>
<path d="M22.0306 19.2517C21.5473 20.0577 20.7525 20.6094 19.7923 20.8056C18.8406 20.9996 17.8398 20.8206 16.9736 20.3013L12.3329 17.5174C12.107 17.3819 11.9473 17.1667 11.8834 16.9112C11.8199 16.6562 11.8596 16.3914 11.9949 16.1657C12.0793 16.0247 12.1977 15.9135 12.335 15.8313L12.3337 15.8305C12.1079 15.695 11.9481 15.4799 11.8845 15.2247C11.8206 14.9695 11.8602 14.7045 11.9957 14.4786C12.0829 14.3334 12.2025 14.2199 12.3389 14.1394C12.1408 14.0031 11.9982 13.8052 11.9395 13.5704C11.8755 13.315 11.9152 13.0502 12.0506 12.8245C12.1859 12.5987 12.4013 12.4391 12.6564 12.3753C12.7361 12.3553 12.817 12.3455 12.897 12.3455C13.0541 12.3456 13.2083 12.3855 13.35 12.4596C13.3587 12.2761 13.4133 12.0959 13.5205 11.9412C13.8146 11.517 14.4036 11.3996 14.8625 11.6749L18.6627 13.9544L18.1728 13.0721C17.9849 12.7353 17.9918 12.3197 18.191 11.9875C18.2881 11.8258 18.4269 11.6915 18.5927 11.5985C18.7289 11.523 18.8765 11.4873 19.0221 11.4873C19.3349 11.4874 19.6386 11.6524 19.8003 11.9445C20.3638 12.9598 21.4271 14.8746 21.5019 15.0082C21.5178 15.0314 21.5658 15.1002 21.607 15.1588C21.6462 15.2144 21.6885 15.2675 21.7323 15.3203C22.6811 16.4705 22.7956 17.9768 22.0306 19.2517L22.0306 19.2517ZM21.3282 15.6541C21.2761 15.5909 21.2249 15.5265 21.1783 15.4601C21.0367 15.259 21.0331 15.2538 21.0224 15.2011C20.8568 14.9271 20.4527 14.1996 19.342 12.1986C19.2446 12.0229 19.0232 11.9588 18.8469 12.0562C18.7601 12.1048 18.6904 12.1725 18.6396 12.2573C18.5366 12.429 18.5327 12.6435 18.6299 12.8176L19.5939 14.5545C19.6514 14.6581 19.6322 14.7874 19.5471 14.8697C19.4622 14.9522 19.3323 14.9666 19.2303 14.9059L14.593 12.1239C14.3744 11.9929 14.0862 12.0442 13.9511 12.2394C13.8734 12.3516 13.8486 12.4854 13.8811 12.6161C13.9109 12.7355 13.9859 12.8362 14.092 12.8998C14.0923 12.9 14.0925 12.9003 14.0928 12.9004L17.1248 14.7194C17.2488 14.7939 17.289 14.9546 17.2146 15.0788C17.1401 15.2026 16.9795 15.2431 16.8552 15.1685L13.1328 12.9354C13.0272 12.8721 12.9029 12.8534 12.7835 12.8834C12.6638 12.9132 12.5631 12.988 12.4996 13.0941C12.436 13.1999 12.4176 13.324 12.4471 13.4434C12.477 13.5628 12.5519 13.6637 12.6579 13.7273L13.3822 14.1617L16.3802 15.9604C16.5041 16.0349 16.5443 16.1956 16.4699 16.3197C16.3954 16.4435 16.2349 16.4839 16.1106 16.4094L13.0778 14.5899C12.8597 14.4587 12.5757 14.5299 12.4445 14.7483C12.3809 14.8543 12.3625 14.9784 12.392 15.0978C12.4219 15.2172 12.4968 15.3179 12.6029 15.3817L13.3465 15.8277L15.6356 17.2012C15.7596 17.2756 15.7998 17.4363 15.7253 17.5605C15.6509 17.6843 15.4903 17.725 15.366 17.6502L13.0769 16.2767C12.9713 16.2134 12.8474 16.1947 12.7274 16.2248C12.608 16.2546 12.507 16.3294 12.4435 16.4352C12.3801 16.5411 12.3615 16.6654 12.391 16.7846C12.4209 16.904 12.4958 17.0047 12.6019 17.0685L17.2426 19.8524C17.9957 20.3042 18.8642 20.4606 19.6871 20.2927C20.5015 20.1264 21.1742 19.6612 21.5812 18.9826C22.239 17.8868 22.1444 16.6424 21.3285 15.654L21.3282 15.6541Z" fill="#103E13"/>
</svg>
