<svg width="13" height="13" viewBox="0 0 13 13" fill="none" xmlns="http://www.w3.org/2000/svg">
<g clip-path="url(#clip0_1346_230)">
<path fill-rule="evenodd" clip-rule="evenodd" d="M11.8543 0.674954C11.9961 0.816763 12.0441 1.02727 11.9779 1.21656L8.32353 11.6576C8.25282 11.8596 8.06594 11.998 7.85207 12.0068C7.63819 12.0155 7.44066 11.8928 7.35373 11.6972L5.34707 7.18218L0.832082 5.17552C0.636479 5.08859 0.513764 4.89106 0.522489 4.67718C0.531215 4.46331 0.669613 4.27643 0.871647 4.20572L11.3127 0.551357C11.502 0.485106 11.7125 0.533145 11.8543 0.674954ZM6.36525 6.90229L7.77304 10.0698L10.2367 3.03087L6.36525 6.90229ZM9.49838 2.29257L2.45943 4.75621L5.62696 6.164L9.49838 2.29257Z" fill="white"/>
</g>
<defs>
<clipPath id="clip0_1346_230">
<rect width="12.5293" height="12.5293" fill="white"/>
</clipPath>
</defs>
</svg>
