<svg width="108" height="17" viewBox="0 0 108 17" fill="none" xmlns="http://www.w3.org/2000/svg">
<path d="M13.0766 9.14228L9.32414 15.569L5.57171 9.14228H13.0766ZM14.0819 8.56787H4.56238L9.32414 16.7058L14.0819 8.56787Z" fill="#263238"/>
<path d="M19.6007 1.14878L23.3531 7.57551H15.8482L19.6007 1.14878ZM19.6007 0L14.8389 8.13785H24.3624L19.6007 0Z" fill="#263238"/>
<path d="M0 0L3.99259 7.19795L8.35551 0.180742L0 0Z" fill="#4CAF4F"/>
<path d="M9.32418 0.630615L13.5121 7.7884H5.12811L9.32418 0.630615Z" fill="#4CAF4F"/>
<path d="M14.5906 9.35107L18.7827 16.7057H10.1992L14.4604 9.35107H14.5906Z" fill="#4CAF4F"/>
<path d="M15.4982 8.90527L19.6007 16.1474L23.7601 8.90527H15.4982Z" fill="#4CAF4F"/>
<path d="M41.7869 1.16187V15.3364H39.1984L33.0316 6.41501H32.9278V15.3364H29.931V1.16187H32.561L38.6793 10.0763H38.8039V1.16187H41.7869Z" fill="#263238"/>
<path d="M49.0524 15.544C47.9588 15.544 47.0175 15.3225 46.2285 14.8796C45.4441 14.432 44.8397 13.7999 44.4152 12.9832C43.9907 12.1619 43.7785 11.1906 43.7785 10.0694C43.7785 8.97584 43.9907 8.01611 44.4152 7.19018C44.8397 6.36426 45.4372 5.72059 46.2078 5.25918C46.9829 4.79777 47.8919 4.56707 48.9347 4.56707C49.636 4.56707 50.2889 4.68011 50.8934 4.90621C51.5025 5.12768 52.0331 5.4622 52.4853 5.90977C52.942 6.35734 53.2973 6.92026 53.5511 7.59853C53.8049 8.27219 53.9318 9.0612 53.9318 9.96556V10.7753H44.955V8.94815H51.1564C51.1564 8.52366 51.0641 8.14761 50.8795 7.82001C50.695 7.49241 50.4389 7.23632 50.1113 7.05176C49.7883 6.86258 49.4123 6.76799 48.9832 6.76799C48.5356 6.76799 48.1388 6.87181 47.7927 7.07944C47.4513 7.28246 47.1837 7.557 46.9899 7.90306C46.7961 8.2445 46.6969 8.62517 46.6923 9.04505V10.7823C46.6923 11.3083 46.7892 11.7628 46.9829 12.1457C47.1813 12.5287 47.4605 12.824 47.8204 13.0316C48.1803 13.2393 48.6071 13.3431 49.1008 13.3431C49.4284 13.3431 49.7283 13.2969 50.0006 13.2047C50.2728 13.1124 50.5058 12.974 50.6996 12.7894C50.8934 12.6048 51.041 12.3787 51.1425 12.1111L53.8695 12.2911C53.7311 12.9463 53.4473 13.5184 53.0182 14.0075C52.5937 14.492 52.0446 14.8703 51.3709 15.1426C50.7019 15.4102 49.929 15.544 49.0524 15.544Z" fill="#263238"/>
<path d="M58.1294 4.70549L60.0812 8.42215L62.0814 4.70549H65.106L62.0261 10.0209L65.189 15.3364H62.1783L60.0812 11.6612L58.0187 15.3364H54.9734L58.1294 10.0209L55.0841 4.70549H58.1294Z" fill="#263238"/>
<path d="M71.2796 15.544C70.1907 15.544 69.254 15.3133 68.4696 14.8519C67.6899 14.3859 67.09 13.7399 66.6701 12.914C66.2549 12.088 66.0472 11.1375 66.0472 10.0625C66.0472 8.97353 66.2572 8.01841 66.6771 7.1971C67.1016 6.37118 67.7037 5.72751 68.4835 5.2661C69.2633 4.80008 70.1907 4.56707 71.2658 4.56707C72.1932 4.56707 73.0053 4.73548 73.702 5.07231C74.3988 5.40914 74.9501 5.88209 75.3562 6.49115C75.7622 7.10021 75.986 7.81539 76.0275 8.6367H73.2452C73.1668 8.10608 72.9592 7.67928 72.6223 7.35629C72.2901 7.02869 71.8541 6.86489 71.3142 6.86489C70.8574 6.86489 70.4583 6.98947 70.1169 7.23863C69.78 7.48318 69.517 7.84077 69.3279 8.31141C69.1387 8.78205 69.0441 9.35189 69.0441 10.0209C69.0441 10.6992 69.1364 11.276 69.3209 11.7512C69.5101 12.2265 69.7754 12.5887 70.1169 12.8378C70.4583 13.087 70.8574 13.2116 71.3142 13.2116C71.6511 13.2116 71.9533 13.1424 72.2209 13.0039C72.4931 12.8655 72.7169 12.6648 72.8923 12.4018C73.0722 12.1342 73.1899 11.8135 73.2452 11.4398H76.0275C75.9814 12.2518 75.7599 12.967 75.3631 13.5853C74.9709 14.199 74.4287 14.6789 73.7366 15.0249C73.0445 15.371 72.2255 15.544 71.2796 15.544Z" fill="#263238"/>
<path d="M82.7601 15.544C81.6665 15.544 80.7253 15.3225 79.9362 14.8796C79.1518 14.432 78.5474 13.7999 78.1229 12.9832C77.6984 12.1619 77.4862 11.1906 77.4862 10.0694C77.4862 8.97584 77.6984 8.01611 78.1229 7.19018C78.5474 6.36426 79.1449 5.72059 79.9155 5.25918C80.6906 4.79777 81.5996 4.56707 82.6424 4.56707C83.3438 4.56707 83.9966 4.68011 84.6011 4.90621C85.2102 5.12768 85.7408 5.4622 86.193 5.90977C86.6498 6.35734 87.005 6.92026 87.2588 7.59853C87.5126 8.27219 87.6395 9.0612 87.6395 9.96556V10.7753H78.6628V8.94815H84.8641C84.8641 8.52366 84.7718 8.14761 84.5872 7.82001C84.4027 7.49241 84.1466 7.23632 83.819 7.05176C83.496 6.86258 83.12 6.76799 82.6909 6.76799C82.2433 6.76799 81.8465 6.87181 81.5004 7.07944C81.159 7.28246 80.8914 7.557 80.6976 7.90306C80.5038 8.2445 80.4046 8.62517 80.4 9.04505V10.7823C80.4 11.3083 80.4969 11.7628 80.6906 12.1457C80.8891 12.5287 81.1682 12.824 81.5281 13.0316C81.888 13.2393 82.3148 13.3431 82.8085 13.3431C83.1361 13.3431 83.436 13.2969 83.7083 13.2047C83.9805 13.1124 84.2135 12.974 84.4073 12.7894C84.6011 12.6048 84.7487 12.3787 84.8503 12.1111L87.5772 12.2911C87.4388 12.9463 87.155 13.5184 86.7259 14.0075C86.3014 14.492 85.7523 14.8703 85.0787 15.1426C84.4096 15.4102 83.6367 15.544 82.7601 15.544Z" fill="#263238"/>
<path d="M92.512 9.19039V15.3364H89.5636V4.70549H92.3735V6.58112H92.4981C92.7334 5.96283 93.1279 5.47374 93.6816 5.11384C94.2353 4.74933 94.9067 4.56707 95.6957 4.56707C96.4339 4.56707 97.0776 4.72856 97.6267 5.05155C98.1758 5.37454 98.6026 5.83595 98.9071 6.43578C99.2116 7.031 99.3639 7.74157 99.3639 8.56749V15.3364H96.4155V9.0935C96.4201 8.44291 96.254 7.93536 95.9172 7.57085C95.5803 7.20172 95.1166 7.01716 94.526 7.01716C94.1292 7.01716 93.7785 7.10252 93.474 7.27324C93.1741 7.44396 92.9388 7.69312 92.768 8.02072C92.6019 8.34371 92.5166 8.7336 92.512 9.19039Z" fill="#263238"/>
<path d="M107.342 4.70549V6.92026H100.94V4.70549H107.342ZM102.394 2.15851H105.342V12.0696C105.342 12.3418 105.384 12.5541 105.467 12.7063C105.55 12.854 105.665 12.9578 105.813 13.0178C105.965 13.0778 106.14 13.1078 106.339 13.1078C106.477 13.1078 106.616 13.0962 106.754 13.0732C106.892 13.0455 106.998 13.0247 107.072 13.0109L107.536 15.2049C107.388 15.251 107.181 15.3041 106.913 15.3641C106.646 15.4287 106.32 15.4679 105.937 15.4817C105.227 15.5094 104.604 15.4148 104.069 15.1979C103.538 14.9811 103.125 14.6443 102.83 14.1875C102.534 13.7307 102.389 13.1539 102.394 12.4572V2.15851Z" fill="#263238"/>
</svg>
