<svg width="23" height="23" viewBox="0 0 23 23" fill="none" xmlns="http://www.w3.org/2000/svg">
<path opacity="0.1" fill-rule="evenodd" clip-rule="evenodd" d="M0 11.1371C0 4.98625 4.98625 0 11.1371 0C17.288 0 22.2742 4.98625 22.2742 11.1371C22.2742 17.288 17.288 22.2742 11.1371 22.2742C4.98625 22.2742 0 17.288 0 11.1371Z" fill="white"/>
<path fill-rule="evenodd" clip-rule="evenodd" d="M10.8035 9.0524L10.8269 9.43777L10.4374 9.39058C9.01959 9.20969 7.78095 8.59625 6.72928 7.56597L6.21513 7.05477L6.08269 7.43227C5.80225 8.2738 5.98142 9.1625 6.56569 9.76022C6.87729 10.0905 6.80718 10.1377 6.26966 9.94111C6.08269 9.87819 5.9191 9.831 5.90352 9.8546C5.84899 9.90965 6.03595 10.6253 6.18397 10.9085C6.38651 11.3017 6.79939 11.6871 7.25122 11.9151L7.63294 12.096L7.18111 12.1039C6.74486 12.1039 6.72928 12.1118 6.77602 12.2769C6.93182 12.7881 7.54725 13.3308 8.23278 13.5667L8.71578 13.7319L8.29511 13.9836C7.67189 14.3453 6.93961 14.5498 6.20734 14.5655C5.85678 14.5734 5.56854 14.6049 5.56854 14.6285C5.56854 14.7071 6.51894 15.1475 7.07205 15.3205C8.73136 15.8317 10.7023 15.6115 12.1824 14.7386C13.2341 14.1173 14.2858 12.8825 14.7765 11.6871C15.0414 11.05 15.3063 9.88605 15.3063 9.32766C15.3063 8.96589 15.3296 8.9187 15.7659 8.48614C16.023 8.23447 16.2645 7.95921 16.3112 7.88056C16.3891 7.73113 16.3813 7.73113 15.984 7.86483C15.3218 8.10077 15.2284 8.06931 15.5556 7.7154C15.797 7.46373 16.0853 7.00758 16.0853 6.87388C16.0853 6.85029 15.9684 6.88961 15.836 6.96039C15.6958 7.03904 15.3842 7.15701 15.1505 7.22779L14.7298 7.36149L14.3481 7.10196C14.1377 6.96039 13.8417 6.8031 13.6859 6.75591C13.2886 6.64581 12.681 6.66154 12.3226 6.78737C11.3489 7.14128 10.7334 8.05358 10.8035 9.0524Z" fill="white"/>
</svg>
