<svg width="23" height="23" viewBox="0 0 23 23" fill="none" xmlns="http://www.w3.org/2000/svg">
<path opacity="0.1" fill-rule="evenodd" clip-rule="evenodd" d="M0 11.1371C0 4.98625 4.98625 0 11.1371 0C17.288 0 22.2742 4.98625 22.2742 11.1371C22.2742 17.288 17.288 22.2742 11.1371 22.2742C4.98625 22.2742 0 17.288 0 11.1371Z" fill="white"/>
<path fill-rule="evenodd" clip-rule="evenodd" d="M15.7783 7.30844C16.2895 7.44871 16.692 7.862 16.8287 8.38683C17.0769 9.33805 17.0769 11.3228 17.0769 11.3228C17.0769 11.3228 17.0769 13.3074 16.8287 14.2587C16.692 14.7835 16.2895 15.1968 15.7783 15.3371C14.852 15.592 11.1371 15.592 11.1371 15.592C11.1371 15.592 7.42225 15.592 6.49585 15.3371C5.98469 15.1968 5.58213 14.7835 5.44552 14.2587C5.19733 13.3074 5.19733 11.3228 5.19733 11.3228C5.19733 11.3228 5.19733 9.33805 5.44552 8.38683C5.58213 7.862 5.98469 7.44871 6.49585 7.30844C7.42225 7.05353 11.1371 7.05353 11.1371 7.05353C11.1371 7.05353 14.852 7.05353 15.7783 7.30844ZM10.0234 9.65215V13.3645L12.9933 11.5084L10.0234 9.65215Z" fill="white"/>
</svg>
