<svg width="133" height="21" viewBox="0 0 133 21" fill="none" xmlns="http://www.w3.org/2000/svg">
<path d="M16.1669 11.3027L11.5276 19.2483L6.88842 11.3027H16.1669ZM17.4097 10.5926H5.64056L11.5276 20.6536L17.4097 10.5926Z" fill="white"/>
<path d="M24.2328 1.42026L28.872 9.36578H19.5935L24.2328 1.42026ZM24.2328 0L18.3456 10.061H30.1198L24.2328 0Z" fill="white"/>
<path d="M0 0L4.93613 8.89899L10.3301 0.223456L0 0Z" fill="#4CAF4F"/>
<path d="M11.5278 0.77948L16.7054 9.62882H6.34009L11.5278 0.77948Z" fill="#4CAF4F"/>
<path d="M18.0387 11.5609L23.2214 20.6536H12.6095L17.8777 11.5609H18.0387Z" fill="#4CAF4F"/>
<path d="M19.1608 11.0096L24.2327 19.9633L29.3751 11.0096H19.1608Z" fill="#4CAF4F"/>
<path d="M51.6621 1.43622V18.9605H48.4618L40.8378 7.93081H40.7094V18.9605H37.0043V1.43622H40.2559L47.8201 12.4573H47.9741V1.43622H51.6621Z" fill="white"/>
<path d="M60.6445 19.2172C59.2926 19.2172 58.1289 18.9434 57.1534 18.3957C56.1836 17.8424 55.4363 17.0609 54.9115 16.0512C54.3867 15.0358 54.1243 13.835 54.1243 12.4488C54.1243 11.0968 54.3867 9.91027 54.9115 8.88916C55.4363 7.86806 56.1751 7.07228 57.1277 6.50182C58.0861 5.93137 59.2099 5.64615 60.4991 5.64615C61.3662 5.64615 62.1734 5.78591 62.9207 6.06543C63.6736 6.33925 64.3297 6.75282 64.8887 7.30616C65.4535 7.8595 65.8927 8.55545 66.2064 9.39401C66.5202 10.2269 66.6771 11.2023 66.6771 12.3204V13.3216H55.5789V11.0626H63.2458C63.2458 10.5378 63.1317 10.0729 62.9035 9.66783C62.6754 9.26281 62.3588 8.94621 61.9537 8.71803C61.5544 8.48414 61.0895 8.3672 60.559 8.3672C60.0056 8.3672 59.5151 8.49555 59.0872 8.75226C58.6651 9.00325 58.3342 9.34267 58.0946 9.77051C57.855 10.1926 57.7324 10.6633 57.7267 11.1824V13.3301C57.7267 13.9804 57.8465 14.5423 58.0861 15.0158C58.3314 15.4893 58.6765 15.8544 59.1214 16.1111C59.5664 16.3678 60.0941 16.4961 60.7044 16.4961C61.1095 16.4961 61.4803 16.4391 61.8168 16.325C62.1534 16.2109 62.4415 16.0398 62.6811 15.8116C62.9206 15.5834 63.1032 15.3039 63.2287 14.973L66.6001 15.1955C66.4289 16.0055 66.0781 16.7129 65.5476 17.3176C65.0228 17.9166 64.3439 18.3843 63.5111 18.7209C62.6839 19.0518 61.7284 19.2172 60.6445 19.2172Z" fill="white"/>
<path d="M71.8668 5.81728L74.2798 10.4123L76.7527 5.81728H80.492L76.6842 12.3889L80.5947 18.9605H76.8725L74.2798 14.4168L71.7298 18.9605H67.9649L71.8668 12.3889L68.1018 5.81728H71.8668Z" fill="white"/>
<path d="M88.1246 19.2172C86.7783 19.2172 85.6203 18.932 84.6506 18.3615C83.6865 17.7854 82.9449 16.9867 82.4258 15.9656C81.9124 14.9445 81.6557 13.7694 81.6557 12.4402C81.6557 11.094 81.9153 9.91313 82.4344 8.89772C82.9592 7.87661 83.7036 7.08083 84.6677 6.51038C85.6317 5.93423 86.7783 5.64615 88.1075 5.64615C89.2541 5.64615 90.2581 5.85436 91.1195 6.27079C91.9809 6.68722 92.6625 7.27193 93.1645 8.02493C93.6665 8.77793 93.9432 9.66213 93.9946 10.6775H90.5547C90.4578 10.0215 90.2011 9.49384 89.7846 9.09453C89.3739 8.68951 88.8348 8.487 88.1674 8.487C87.6026 8.487 87.1092 8.64102 86.6871 8.94906C86.2706 9.2514 85.9455 9.6935 85.7116 10.2754C85.4777 10.8572 85.3608 11.5617 85.3608 12.3889C85.3608 13.2274 85.4749 13.9405 85.703 14.5281C85.9369 15.1156 86.2649 15.5634 86.6871 15.8715C87.1092 16.1795 87.6026 16.3336 88.1674 16.3336C88.5838 16.3336 88.9575 16.248 89.2883 16.0768C89.6249 15.9057 89.9016 15.6576 90.1183 15.3324C90.3408 15.0015 90.4863 14.6051 90.5547 14.143H93.9946C93.9375 15.147 93.6637 16.0312 93.1731 16.7956C92.6882 17.5543 92.0179 18.1476 91.1623 18.5754C90.3066 19.0033 89.294 19.2172 88.1246 19.2172Z" fill="white"/>
<path d="M102.318 19.2172C100.966 19.2172 99.8025 18.9434 98.827 18.3957C97.8572 17.8424 97.1099 17.0609 96.5851 16.0512C96.0603 15.0358 95.7979 13.835 95.7979 12.4488C95.7979 11.0968 96.0603 9.91027 96.5851 8.88916C97.1099 7.86806 97.8487 7.07228 98.8013 6.50182C99.7597 5.93137 100.883 5.64615 102.173 5.64615C103.04 5.64615 103.847 5.78591 104.594 6.06543C105.347 6.33925 106.003 6.75282 106.562 7.30616C107.127 7.8595 107.566 8.55545 107.88 9.39401C108.194 10.2269 108.351 11.2023 108.351 12.3204V13.3216H97.2525V11.0626H104.919C104.919 10.5378 104.805 10.0729 104.577 9.66783C104.349 9.26281 104.032 8.94621 103.627 8.71803C103.228 8.48414 102.763 8.3672 102.233 8.3672C101.679 8.3672 101.189 8.49555 100.761 8.75226C100.339 9.00325 100.008 9.34267 99.7682 9.77051C99.5286 10.1926 99.406 10.6633 99.4003 11.1824V13.3301C99.4003 13.9804 99.5201 14.5423 99.7597 15.0158C100.005 15.4893 100.35 15.8544 100.795 16.1111C101.24 16.3678 101.768 16.4961 102.378 16.4961C102.783 16.4961 103.154 16.4391 103.49 16.325C103.827 16.2109 104.115 16.0398 104.355 15.8116C104.594 15.5834 104.777 15.3039 104.902 14.973L108.274 15.1955C108.103 16.0055 107.752 16.7129 107.221 17.3176C106.696 17.9166 106.018 18.3843 105.185 18.7209C104.358 19.0518 103.402 19.2172 102.318 19.2172Z" fill="white"/>
<path d="M114.375 11.3621V18.9605H110.729V5.81728H114.203V8.13617H114.358C114.648 7.37176 115.136 6.76709 115.821 6.32213C116.505 5.87148 117.335 5.64615 118.311 5.64615C119.223 5.64615 120.019 5.84581 120.698 6.24512C121.377 6.64444 121.905 7.21489 122.281 7.95648C122.658 8.69236 122.846 9.57085 122.846 10.592V18.9605H119.201V11.2423C119.206 10.4379 119.001 9.81044 118.585 9.35979C118.168 8.90343 117.595 8.67525 116.865 8.67525C116.374 8.67525 115.941 8.78078 115.564 8.99185C115.193 9.20291 114.902 9.51096 114.691 9.91598C114.486 10.3153 114.38 10.7973 114.375 11.3621Z" fill="white"/>
<path d="M132.71 5.81728V8.55545H124.795V5.81728H132.71ZM126.592 2.66839H130.237V14.9217C130.237 15.2583 130.288 15.5207 130.391 15.7089C130.493 15.8915 130.636 16.0198 130.819 16.094C131.007 16.1681 131.224 16.2052 131.469 16.2052C131.64 16.2052 131.811 16.1909 131.982 16.1624C132.153 16.1282 132.285 16.1025 132.376 16.0854L132.949 18.7979C132.767 18.8549 132.51 18.9205 132.179 18.9947C131.848 19.0746 131.446 19.1231 130.973 19.1402C130.094 19.1744 129.324 19.0575 128.662 18.7893C128.006 18.5212 127.496 18.1048 127.131 17.5401C126.766 16.9753 126.586 16.2622 126.592 15.4009V2.66839Z" fill="white"/>
</svg>
