<svg width="23" height="23" viewBox="0 0 23 23" fill="none" xmlns="http://www.w3.org/2000/svg">
<path opacity="0.1" fill-rule="evenodd" clip-rule="evenodd" d="M0 11.1371C0 4.98625 4.98625 0 11.1371 0C17.288 0 22.2742 4.98625 22.2742 11.1371C22.2742 17.288 17.288 22.2742 11.1371 22.2742C4.98625 22.2742 0 17.288 0 11.1371Z" fill="white"/>
<path fill-rule="evenodd" clip-rule="evenodd" d="M11.1377 5.19733C9.52451 5.19733 9.32206 5.20438 8.68848 5.23321C8.05613 5.26217 7.6245 5.36228 7.24682 5.50917C6.85616 5.66088 6.52476 5.86383 6.1946 6.19411C5.8642 6.52427 5.66125 6.85566 5.50905 7.24621C5.36179 7.624 5.26155 8.05576 5.23309 8.68786C5.20475 9.32144 5.19733 9.52402 5.19733 11.1372C5.19733 12.7503 5.2045 12.9522 5.23321 13.5858C5.26229 14.2181 5.36241 14.6497 5.50917 15.0274C5.66101 15.4181 5.86395 15.7495 6.19423 16.0796C6.52427 16.41 6.85566 16.6135 7.24608 16.7652C7.624 16.9121 8.05576 17.0122 8.68798 17.0411C9.32157 17.07 9.52389 17.077 11.1369 17.077C12.7502 17.077 12.9521 17.07 13.5856 17.0411C14.218 17.0122 14.6501 16.9121 15.028 16.7652C15.4186 16.6135 15.7495 16.41 16.0795 16.0796C16.4099 15.7495 16.6129 15.4181 16.7651 15.0275C16.9111 14.6497 17.0113 14.218 17.041 13.5859C17.0695 12.9523 17.0769 12.7503 17.0769 11.1372C17.0769 9.52402 17.0695 9.32157 17.041 8.68798C17.0113 8.05563 16.9111 7.624 16.7651 7.24633C16.6129 6.85566 16.4099 6.52427 16.0795 6.19411C15.7491 5.8637 15.4187 5.66076 15.0277 5.50917C14.649 5.36228 14.2171 5.26217 13.5848 5.23321C12.9512 5.20438 12.7495 5.19733 11.1358 5.19733H11.1377ZM10.6048 6.26772C10.7629 6.26747 10.9394 6.26772 11.1377 6.26772C12.7236 6.26772 12.9116 6.27341 13.5378 6.30188C14.117 6.32836 14.4313 6.42513 14.6407 6.50643C14.9179 6.61409 15.1155 6.74279 15.3233 6.95068C15.5312 7.15858 15.6599 7.35657 15.7678 7.63376C15.8491 7.8429 15.946 8.15721 15.9723 8.73635C16.0008 9.36251 16.007 9.55061 16.007 11.1358C16.007 12.721 16.0008 12.9091 15.9723 13.5353C15.9458 14.1144 15.8491 14.4287 15.7678 14.6378C15.6601 14.915 15.5312 15.1124 15.3233 15.3202C15.1154 15.5281 14.918 15.6568 14.6407 15.7644C14.4315 15.8461 14.117 15.9426 13.5378 15.9691C12.9117 15.9976 12.7236 16.0038 11.1377 16.0038C9.55159 16.0038 9.36361 15.9976 8.73745 15.9691C8.15832 15.9424 7.844 15.8456 7.6345 15.7643C7.3573 15.6567 7.15931 15.528 6.95141 15.3201C6.74352 15.1122 6.61482 14.9147 6.50692 14.6373C6.42561 14.4282 6.32872 14.1139 6.30236 13.5348C6.2739 12.9086 6.26821 12.7205 6.26821 11.1343C6.26821 9.54813 6.2739 9.36102 6.30236 8.73486C6.32884 8.15573 6.42561 7.84141 6.50692 7.63203C6.61458 7.35484 6.74352 7.15684 6.95141 6.94895C7.15931 6.74105 7.3573 6.61236 7.6345 6.50445C7.84388 6.42278 8.15832 6.32625 8.73745 6.29965C9.28541 6.2749 9.49776 6.26747 10.6048 6.26624V6.26772ZM14.3083 7.25399C13.9148 7.25399 13.5955 7.57288 13.5955 7.96652C13.5955 8.36004 13.9148 8.6793 14.3083 8.6793C14.7018 8.6793 15.0211 8.36004 15.0211 7.96652C15.0211 7.57301 14.7018 7.25399 14.3083 7.25399ZM11.1377 8.0868C9.45312 8.0868 8.08732 9.4526 8.08732 11.1372C8.08732 12.8217 9.45312 14.1869 11.1377 14.1869C12.8223 14.1869 14.1876 12.8217 14.1876 11.1372C14.1876 9.4526 12.8223 8.0868 11.1377 8.0868ZM11.1377 9.15721C12.2311 9.15721 13.1176 10.0436 13.1176 11.1372C13.1176 12.2306 12.2311 13.1171 11.1377 13.1171C10.0441 13.1171 9.15771 12.2306 9.15771 11.1372C9.15771 10.0436 10.0441 9.15721 11.1377 9.15721Z" fill="white"/>
</svg>
