<svg width="23" height="23" viewBox="0 0 23 23" fill="none" xmlns="http://www.w3.org/2000/svg">
<path opacity="0.1" fill-rule="evenodd" clip-rule="evenodd" d="M0 11.1371C0 4.98625 4.98625 0 11.1371 0C17.288 0 22.2742 4.98625 22.2742 11.1371C22.2742 17.288 17.288 22.2742 11.1371 22.2742C4.98625 22.2742 0 17.288 0 11.1371Z" fill="white"/>
<path fill-rule="evenodd" clip-rule="evenodd" d="M17.0769 11.1289C17.0769 11.5306 17.036 11.9317 16.9557 12.3227C16.8774 12.7045 16.7614 13.0792 16.6094 13.4375C16.4609 13.7894 16.2767 14.1285 16.0615 14.4448C15.8495 14.7591 15.6053 15.0539 15.337 15.3227C15.0681 15.5903 14.7722 15.8338 14.4581 16.0467C14.1408 16.2605 13.8012 16.4444 13.4491 16.5936C13.0903 16.7447 12.7147 16.8606 12.3333 16.9388C11.9417 17.0193 11.5391 17.0604 11.1369 17.0604C10.7343 17.0604 10.3317 17.0193 9.94072 16.9388C9.55874 16.8606 9.18313 16.7447 8.82463 16.5936C8.47252 16.4444 8.13258 16.2605 7.81527 16.0467C7.50116 15.8339 7.20532 15.5903 6.93702 15.3227C6.66845 15.0539 6.42422 14.7591 6.21191 14.4448C5.99786 14.1285 5.81338 13.7894 5.66431 13.4375C5.5123 13.0792 5.39601 12.7044 5.31741 12.3227C5.23794 11.9317 5.19733 11.5306 5.19733 11.1289C5.19733 10.7269 5.23792 10.3249 5.31743 9.93473C5.39604 9.553 5.51233 9.17765 5.66433 8.81997C5.8134 8.4678 5.99788 8.12836 6.21193 7.81208C6.42424 7.49755 6.66847 7.20328 6.93705 6.93421C7.20534 6.66658 7.50118 6.42361 7.8153 6.21103C8.1326 5.9964 8.47255 5.81251 8.82465 5.66305C9.18315 5.51155 9.55874 5.39542 9.94074 5.31781C10.3317 5.23788 10.7343 5.19733 11.1369 5.19733C11.5392 5.19733 11.9417 5.23788 12.3333 5.31781C12.7147 5.39545 13.0903 5.51157 13.4491 5.66305C13.8012 5.81249 14.1408 5.9964 14.4582 6.21103C14.7723 6.42361 15.0681 6.66658 15.337 6.93421C15.6053 7.20328 15.8495 7.49755 16.0615 7.81208C16.2767 8.12836 16.4609 8.46782 16.6094 8.81997C16.7614 9.17765 16.8774 9.553 16.9557 9.93473C17.036 10.3249 17.0769 10.7269 17.0769 11.1289ZM8.97252 6.54727C7.55796 7.21429 6.5022 8.51587 6.173 10.0845C6.30672 10.0856 8.42057 10.1123 10.8561 9.46612C9.97811 7.9085 9.0401 6.63737 8.97252 6.54727ZM11.2763 10.2461C8.66449 11.0269 6.15821 10.9707 6.0683 10.9673C6.06684 11.0217 6.06424 11.0744 6.06424 11.1289C6.06424 12.4301 6.55586 13.6165 7.36392 14.5135C7.36218 14.5108 8.75035 12.0516 11.4878 11.1677C11.5539 11.1457 11.6212 11.126 11.6879 11.1069C11.5606 10.819 11.4216 10.5305 11.2763 10.2461ZM14.4868 7.32724C13.5938 6.54089 12.4212 6.06391 11.1368 6.06391C10.7247 6.06391 10.3247 6.11373 9.94156 6.20582C10.0175 6.30778 10.9703 7.56996 11.8379 9.16056C13.7519 8.44404 14.4744 7.34577 14.4868 7.32724ZM12.0337 11.9462C12.0224 11.9499 12.0111 11.9532 12 11.9572C9.00712 12.9991 8.02974 15.0987 8.01917 15.1217C8.88033 15.7904 9.96045 16.1939 11.1369 16.1939C11.8393 16.1939 12.5085 16.051 13.1173 15.7924C13.0421 15.3499 12.7475 13.7987 12.0337 11.9462ZM13.9714 15.3296C15.1104 14.5621 15.9193 13.3434 16.145 11.9317C16.0406 11.8981 14.6214 11.4495 12.9841 11.7116C13.6495 13.5374 13.9198 15.0244 13.9714 15.3296ZM12.2283 9.91534C12.346 10.1569 12.46 10.4027 12.5653 10.6498C12.6027 10.7385 12.6393 10.8254 12.675 10.9122C14.4175 10.6933 16.1343 11.0617 16.2077 11.0767C16.1961 9.87594 15.766 8.77391 15.0542 7.91113C15.0446 7.92471 14.2311 9.09858 12.2283 9.91534Z" fill="white"/>
</svg>
